<?xml version="1.0" encoding="UTF-8" standalone="no"?>
<svg
   width="370"
   height="200"
   viewBox="0 0 370 200"
   fill="none"
   version="1.1"
   id="svg7"
   sodipodi:docname="Frame 7.svg"
   inkscape:version="1.3 (0e150ed, 2023-07-21)"
   xmlns:inkscape="http://www.inkscape.org/namespaces/inkscape"
   xmlns:sodipodi="http://sodipodi.sourceforge.net/DTD/sodipodi-0.dtd"
   xmlns="http://www.w3.org/2000/svg"
   xmlns:svg="http://www.w3.org/2000/svg">
  <defs
     id="defs7" />
  <sodipodi:namedview
     id="namedview7"
     pagecolor="#ffffff"
     bordercolor="#000000"
     borderopacity="0.25"
     inkscape:showpageshadow="2"
     inkscape:pageopacity="0.0"
     inkscape:pagecheckerboard="0"
     inkscape:deskcolor="#d1d1d1"
     inkscape:zoom="1.0217471"
     inkscape:cx="205.04096"
     inkscape:cy="235.87051"
     inkscape:window-width="1904"
     inkscape:window-height="1129"
     inkscape:window-x="9"
     inkscape:window-y="34"
     inkscape:window-maximized="0"
     inkscape:current-layer="svg7" />
  <g
     id="g7"
     transform="translate(-77.76674,-31.302717)">
    <rect
       x="97.68074"
       y="51.802715"
       width="144"
       height="162"
       rx="39"
       fill="#0a8551"
       id="rect1" />
    <path
       d="m 213.77474,89.154717 v 89.648003 h -18.461 v -54.188 l -22.844,24.969 h -5.312 l -23.11,-24.969 v 54.188 h -18.461 V 89.154717 h 6.242 l 37.985,39.578003 37.719,-39.578003 z"
       fill="#ffffff"
       id="path1" />
    <rect
       x="34.802715"
       y="-135.68074"
       width="33"
       height="16"
       rx="8"
       transform="rotate(90)"
       fill="#efb74c"
       id="rect2" />
    <rect
       x="34.802715"
       y="-162.68074"
       width="33"
       height="16"
       rx="8"
       transform="rotate(90)"
       fill="#efb74c"
       id="rect3" />
    <rect
       x="194.80272"
       y="-219.68073"
       width="33"
       height="16"
       rx="8"
       transform="rotate(90)"
       fill="#efb74c"
       id="rect4" />
    <rect
       x="194.80272"
       y="-192.68073"
       width="33"
       height="16"
       rx="8"
       transform="rotate(90)"
       fill="#efb74c"
       id="rect5" />
    <rect
       x="-113.68074"
       y="-175.80272"
       width="32"
       height="16"
       rx="8"
       transform="scale(-1)"
       fill="#efb74c"
       id="rect6" />
    <rect
       x="-113.68074"
       y="-151.80272"
       width="32"
       height="16"
       rx="8"
       transform="scale(-1)"
       fill="#efb74c"
       id="rect7" />
    <path
       d="m 266.93074,99.802717 c 2.438,0 4.536,0.880003 6.297,2.641003 1.76,1.692 2.641,3.724 2.641,6.093 0,2.302 -0.881,4.334 -2.641,6.094 -1.761,1.761 -3.859,2.641 -6.297,2.641 -2.438,0 -4.536,-0.88 -6.297,-2.641 -1.693,-1.76 -2.539,-3.792 -2.539,-6.094 0,-2.369 0.846,-4.401 2.539,-6.093 1.761,-1.761 3.859,-2.641003 6.297,-2.641003 z m 7.516,26.711003 v 51.289 h -12.899 v -40.32 h -8.226 v -10.969 z m 29.148,-21.836 v 44.687 l 20.922,-22.851 h 16.148 l -22.14,22.242 23.258,29.047 h -16.25 l -15.54,-20.414 -6.398,6.398 v 14.016 h -12.898 v -73.125 z m 78.914,36.258 c -2.167,-1.219 -4.435,-1.828 -6.805,-1.828 -2.979,0 -5.45,0.981 -7.414,2.945 -1.963,1.896 -3.69,4.266 -5.179,7.109 v 28.641 h -12.899 v -51.289 h 12.899 v 9.648 c 1.76,-3.047 3.825,-5.586 6.195,-7.617 2.437,-2.031 5.18,-3.047 8.227,-3.047 1.828,0 3.487,0.305 4.976,0.914 z m 33.82,-15.742 c 5.011,0 9.581,1.218 13.711,3.656 4.131,2.37 7.448,5.62 9.953,9.75 2.573,4.062 3.86,8.633 3.86,13.711 0,5.078 -1.287,9.648 -3.86,13.711 -2.505,4.062 -5.822,7.312 -9.953,9.75 -4.13,2.37 -8.7,3.554 -13.711,3.554 -4.942,0 -9.513,-1.184 -13.71,-3.554 -4.131,-2.438 -7.448,-5.688 -9.954,-9.75 -2.505,-4.063 -3.757,-8.633 -3.757,-13.711 0,-5.078 1.252,-9.649 3.757,-13.711 2.506,-4.13 5.823,-7.38 9.954,-9.75 4.197,-2.438 8.768,-3.656 13.71,-3.656 z m 0,12.492 c -2.437,0 -4.705,0.575 -6.804,1.726 -2.099,1.151 -3.792,2.81 -5.078,4.977 -1.219,2.167 -1.828,4.807 -1.828,7.922 0,3.114 0.609,5.755 1.828,7.922 1.286,2.166 2.979,3.825 5.078,4.976 2.099,1.084 4.367,1.625 6.804,1.625 2.438,0 4.706,-0.541 6.805,-1.625 2.099,-1.151 3.792,-2.81 5.078,-4.976 1.287,-2.167 1.93,-4.808 1.93,-7.922 0,-3.115 -0.643,-5.755 -1.93,-7.922 -1.286,-2.167 -2.979,-3.826 -5.078,-4.977 -2.099,-1.151 -4.367,-1.726 -6.805,-1.726 z"
       fill="#000000"
       id="path7" />
  </g>
</svg>
