<svg width="512" height="512" viewBox="0 0 512 512" fill="none" xmlns="http://www.w3.org/2000/svg">
<rect x="83" y="176" width="144" height="162" rx="39" fill="#0A8551"/>
<path d="M199.094 213.352V303H180.633V248.812L157.789 273.781H152.477L129.367 248.812V303H110.906V213.352H117.148L155.133 252.93L192.852 213.352H199.094Z" fill="white"/>
<rect x="121" y="159" width="33" height="16" rx="8" transform="rotate(90 121 159)" fill="#EFB74C"/>
<rect x="148" y="159" width="33" height="16" rx="8" transform="rotate(90 148 159)" fill="#EFB74C"/>
<rect x="205" y="319" width="33" height="16" rx="8" transform="rotate(90 205 319)" fill="#EFB74C"/>
<rect x="178" y="319" width="33" height="16" rx="8" transform="rotate(90 178 319)" fill="#EFB74C"/>
<rect x="99" y="300" width="32" height="16" rx="8" transform="rotate(-180 99 300)" fill="#EFB74C"/>
<rect x="99" y="276" width="32" height="16" rx="8" transform="rotate(-180 99 276)" fill="#EFB74C"/>
<path d="M252.25 224C254.688 224 256.786 224.88 258.547 226.641C260.307 228.333 261.188 230.365 261.188 232.734C261.188 235.036 260.307 237.068 258.547 238.828C256.786 240.589 254.688 241.469 252.25 241.469C249.812 241.469 247.714 240.589 245.953 238.828C244.26 237.068 243.414 235.036 243.414 232.734C243.414 230.365 244.26 228.333 245.953 226.641C247.714 224.88 249.812 224 252.25 224ZM259.766 250.711V302H246.867V261.68H238.641V250.711H259.766ZM288.914 228.875V273.562L309.836 250.711H325.984L303.844 272.953L327.102 302H310.852L295.312 281.586L288.914 287.984V302H276.016V228.875H288.914ZM367.828 265.133C365.661 263.914 363.393 263.305 361.023 263.305C358.044 263.305 355.573 264.286 353.609 266.25C351.646 268.146 349.919 270.516 348.43 273.359V302H335.531V250.711H348.43V260.359C350.19 257.312 352.255 254.773 354.625 252.742C357.062 250.711 359.805 249.695 362.852 249.695C364.68 249.695 366.339 250 367.828 250.609V265.133ZM401.648 249.391C406.659 249.391 411.229 250.609 415.359 253.047C419.49 255.417 422.807 258.667 425.312 262.797C427.885 266.859 429.172 271.43 429.172 276.508C429.172 281.586 427.885 286.156 425.312 290.219C422.807 294.281 419.49 297.531 415.359 299.969C411.229 302.339 406.659 303.523 401.648 303.523C396.706 303.523 392.135 302.339 387.938 299.969C383.807 297.531 380.49 294.281 377.984 290.219C375.479 286.156 374.227 281.586 374.227 276.508C374.227 271.43 375.479 266.859 377.984 262.797C380.49 258.667 383.807 255.417 387.938 253.047C392.135 250.609 396.706 249.391 401.648 249.391ZM401.648 261.883C399.211 261.883 396.943 262.458 394.844 263.609C392.745 264.76 391.052 266.419 389.766 268.586C388.547 270.753 387.938 273.393 387.938 276.508C387.938 279.622 388.547 282.263 389.766 284.43C391.052 286.596 392.745 288.255 394.844 289.406C396.943 290.49 399.211 291.031 401.648 291.031C404.086 291.031 406.354 290.49 408.453 289.406C410.552 288.255 412.245 286.596 413.531 284.43C414.818 282.263 415.461 279.622 415.461 276.508C415.461 273.393 414.818 270.753 413.531 268.586C412.245 266.419 410.552 264.76 408.453 263.609C406.354 262.458 404.086 261.883 401.648 261.883Z" fill="black"/>
</svg>
