<?xml version="1.0" encoding="UTF-8" standalone="no"?>
<svg
   width="372"
   height="372"
   viewBox="0 0 372 372"
   fill="none"
   version="1.1"
   id="svg7"
   sodipodi:docname="Frame 17.svg"
   inkscape:version="1.3 (0e150ed, 2023-07-21)"
   xmlns:inkscape="http://www.inkscape.org/namespaces/inkscape"
   xmlns:sodipodi="http://sodipodi.sourceforge.net/DTD/sodipodi-0.dtd"
   xmlns="http://www.w3.org/2000/svg"
   xmlns:svg="http://www.w3.org/2000/svg">
  <defs
     id="defs7" />
  <sodipodi:namedview
     id="namedview7"
     pagecolor="#ffffff"
     bordercolor="#000000"
     borderopacity="0.25"
     inkscape:showpageshadow="2"
     inkscape:pageopacity="0.0"
     inkscape:pagecheckerboard="0"
     inkscape:deskcolor="#d1d1d1"
     inkscape:zoom="0.92391773"
     inkscape:cx="211.59893"
     inkscape:cy="335.52771"
     inkscape:window-width="1904"
     inkscape:window-height="1129"
     inkscape:window-x="9"
     inkscape:window-y="34"
     inkscape:window-maximized="0"
     inkscape:current-layer="svg7" />
  <g
     id="g7"
     transform="translate(-63,-70)">
    <rect
       x="110"
       y="103"
       width="289"
       height="312"
       rx="74"
       fill="#0a8551"
       id="rect1" />
    <path
       d="M 341.066,172.999 V 349 H 304.823 V 242.617 l -44.847,49.02 h -10.43 l -45.369,-49.02 V 349 H 167.934 V 172.999 h 12.254 l 74.573,77.701 74.051,-77.701 z"
       fill="#ffffff"
       id="path1" />
    <rect
       x="189"
       y="70"
       width="64"
       height="31"
       rx="15.5"
       transform="rotate(90,189,70)"
       fill="#efb74c"
       id="rect2" />
    <rect
       x="241"
       y="70"
       width="64"
       height="31"
       rx="15.5"
       transform="rotate(90,241,70)"
       fill="#efb74c"
       id="rect3" />
    <rect
       x="351"
       y="378"
       width="64"
       height="31"
       rx="15.5"
       transform="rotate(90,351,378)"
       fill="#efb74c"
       id="rect4" />
    <rect
       x="299"
       y="378"
       width="64"
       height="31"
       rx="15.5"
       transform="rotate(90,299,378)"
       fill="#efb74c"
       id="rect5" />
    <rect
       x="141"
       y="342"
       width="62"
       height="31"
       rx="15.5"
       transform="rotate(180,141,342)"
       fill="#efb74c"
       id="rect6" />
    <rect
       x="141"
       y="296"
       width="62"
       height="31"
       rx="15.5"
       transform="rotate(180,141,296)"
       fill="#efb74c"
       id="rect7" />
  </g>
</svg>
